<svg width="168" height="34" viewBox="0 0 168 34" fill="none" xmlns="http://www.w3.org/2000/svg">
<path fill-rule="evenodd" clip-rule="evenodd" d="M67.7968 26.2968C61.4218 31.078 52.3906 33.4687 44.4218 33.4687C33.2656 33.4687 23.4375 29.4843 16 22.578C15.4687 22.0468 16 21.2499 16.5312 21.7812C24.7656 26.5624 34.5937 29.2187 44.9531 29.2187C51.8593 29.2187 59.5625 27.8905 66.7343 24.703C67.7968 24.1718 68.5937 25.4999 67.7968 26.2968Z" fill="#8C82FC"/>
<path fill-rule="evenodd" clip-rule="evenodd" d="M67.7968 26.2968C61.4218 31.078 52.3906 33.4687 44.4218 33.4687C33.2656 33.4687 23.4375 29.4843 16 22.578C15.4687 22.0468 16 21.2499 16.5312 21.7812C24.7656 26.5624 34.5937 29.2187 44.9531 29.2187C51.8593 29.2187 59.5625 27.8905 66.7343 24.703C67.7968 24.1718 68.5937 25.4999 67.7968 26.2968Z" fill="#8C82FC"/>
<path fill-rule="evenodd" clip-rule="evenodd" d="M67.7969 24.7032C61.4219 29.2188 52.3907 31.6094 44.6875 31.6094C34.3282 31.6094 25.0313 27.8907 17.8594 22.0469C17.5938 21.7813 17.0625 21.7813 16.7969 21.5157C16 20.9844 15.4688 21.7813 16.2657 22.3125C23.7032 29.2188 33.7969 33.2031 44.6875 33.2031C52.6563 33.2031 61.6875 30.8125 68.0625 26.0313C68.3282 25.7657 68.3282 24.9688 67.7969 24.7032Z" fill="#8C82FC"/>
<path fill-rule="evenodd" clip-rule="evenodd" d="M70.1874 23.1094C69.3905 22.0469 64.8749 22.5781 62.7499 22.8437C62.2187 22.8437 61.953 22.3125 62.4843 22.0469C66.203 19.3906 72.0468 20.1875 72.578 20.9844C73.3749 21.7812 72.3124 27.8906 69.1249 30.5469C68.5937 31.0781 68.0624 30.8125 68.328 30.2812C69.3905 28.4219 70.9843 24.1719 70.1874 23.1094Z" fill="#8C82FC"/>
<path fill-rule="evenodd" clip-rule="evenodd" d="M73.1093 21.25C73.9062 22.0469 72.8437 28.1563 69.6562 30.8125C69.125 31.3438 68.5937 31.0781 68.8593 30.5469C69.6562 28.6875 71.25 24.4375 70.4531 23.375" fill="#8C82FC"/>
<path fill-rule="evenodd" clip-rule="evenodd" d="M63.0156 4.25V1.85937C63.0156 1.59375 63.2812 1.32813 63.5469 1.32813H74.7031C74.9688 1.32813 75.2344 1.59375 75.2344 1.85937V3.98438C75.2344 4.25 74.9688 4.78125 74.4375 5.57813L68.5938 13.8125C70.7188 13.8125 72.8438 14.0781 74.9688 15.1406C75.5 15.4063 75.5 15.6719 75.5 16.2031V18.8594C75.5 19.125 75.2344 19.6563 74.7031 19.3906C71.25 17.5313 66.7344 17.5313 63.0156 19.3906C62.75 19.6563 62.2187 19.125 62.2187 18.8594V16.4688C62.2187 16.2031 62.2188 15.4063 62.75 14.875L69.3906 5.3125H63.5469C63.2812 4.78125 63.0156 4.51563 63.0156 4.25ZM22.9062 19.6563H19.4531C19.1875 19.6563 18.9219 19.3906 18.9219 19.125V1.85937C18.9219 1.59375 19.1875 1.32813 19.4531 1.32813H22.6406C22.9062 1.32813 23.1719 1.59375 23.1719 1.85937V3.98438C23.9688 1.85938 25.5625 0.796875 27.6875 0.796875C29.8125 0.796875 31.1406 1.85938 31.9375 3.98438C32.7344 1.85938 34.5938 0.796875 36.4531 0.796875C37.7813 0.796875 39.375 1.32813 40.4375 2.65625C41.5 3.98438 41.2344 6.10938 41.2344 7.96875V18.8594C41.2344 19.125 40.9688 19.3906 40.7031 19.3906H37.25C36.9844 19.3906 36.7188 19.125 36.7188 18.8594V6.64063C36.4531 5.57813 35.6562 5.04688 34.8594 5.04688C34.0625 5.04688 33.2656 5.57813 32.7344 6.375C32.4687 7.17188 32.4688 8.76563 32.4688 9.56251V18.5938C32.4688 18.8594 32.2031 19.125 31.9375 19.125H28.4844C28.2188 19.125 27.9531 18.8594 27.9531 18.5938V9.56251C27.9531 7.70313 28.2188 4.78125 25.8281 4.78125C23.4375 4.78125 23.4375 7.4375 23.4375 9.56251V18.5938C23.4375 19.3906 23.1719 19.6563 22.9062 19.6563ZM84.7969 0.796875C89.8438 0.796875 92.5 5.04688 92.5 10.625C92.5 15.9375 89.5781 20.1875 84.7969 20.1875C80.0156 20.1875 77.3594 15.9375 77.3594 10.625C77.3594 5.04688 80.0156 0.796875 84.7969 0.796875ZM84.7969 4.25C82.4062 4.25 82.1406 7.70313 82.1406 9.82813C82.1406 11.9531 82.1406 16.4688 84.7969 16.4688C87.4531 16.4688 87.4531 12.75 87.4531 10.625C87.4531 9.29688 87.4531 7.4375 86.9219 6.10938C86.6562 4.78125 85.8594 4.25 84.7969 4.25ZM99.1406 19.6563H95.6875C95.4219 19.6563 95.1562 19.3906 95.1562 19.125V1.85937C95.1562 1.59375 95.4219 1.32813 95.6875 1.32813H98.875C99.1406 1.32813 99.4062 1.59375 99.4062 1.85937V4.51562C100.469 2.125 101.531 1.0625 103.922 1.0625C105.516 1.0625 106.844 1.59375 107.906 3.1875C108.703 4.51562 108.703 6.90625 108.703 8.5V19.3906C108.703 19.6563 108.437 19.9219 108.172 19.9219H104.719C104.453 19.9219 104.187 19.6563 104.187 19.3906V10.0938C104.187 8.23438 104.453 5.57813 102.062 5.57813C101.266 5.57813 100.469 6.10938 100.203 6.90625C99.6719 7.96875 99.6719 9.03125 99.6719 10.0938V19.3906C99.6719 19.3906 99.4062 19.6563 99.1406 19.6563Z" fill="#4D42C8"/>
<path d="M112.688 19.9219C113.568 19.9219 114.281 19.2083 114.281 18.3281C114.281 17.4479 113.568 16.7344 112.688 16.7344C111.807 16.7344 111.094 17.4479 111.094 18.3281C111.094 19.2083 111.807 19.9219 112.688 19.9219Z" fill="#8C82FC"/>
<path d="M146.687 19.6564C146.422 19.6564 146.156 19.3907 146.156 19.1251V1.8595C146.156 1.59387 146.422 1.32825 146.687 1.32825H147.75C148.016 1.32825 148.281 1.59387 148.281 1.8595V4.25013C149.078 2.39075 150.672 0.796998 152.797 0.796998C154.922 0.796998 156.516 2.39075 157.312 4.78137C158.109 2.39075 159.969 0.796998 162.359 0.796998C163.953 0.796998 165.547 1.8595 166.344 3.45325C167.141 5.047 167.141 6.90637 167.141 8.76575V19.1251C167.141 19.3907 166.875 19.6564 166.609 19.6564H165.016C164.75 19.6564 164.484 19.3907 164.484 19.1251V8.76575C164.484 7.43762 164.484 6.1095 163.953 5.047C163.422 3.9845 162.359 3.18762 161.297 3.18762C160.234 3.18762 159.172 3.9845 158.375 5.31262C157.578 6.90637 157.578 8.2345 157.578 9.82824V19.1251C157.578 19.3907 157.312 19.6564 157.047 19.6564H155.453C155.188 19.6564 154.922 19.3907 154.922 19.1251V7.96887C154.922 6.90637 154.922 5.84387 154.391 4.78137C153.859 3.71887 152.797 3.18763 151.734 2.922C150.672 2.922 149.609 3.71887 149.078 4.78137C148.281 6.1095 148.016 7.43762 148.016 9.03137V18.8595C148.016 19.1251 147.75 19.3907 147.484 19.3907H146.687V19.6564ZM136.594 19.922C131.812 19.922 129.688 15.1407 129.688 10.0939C129.688 5.047 132.078 0.531372 137.125 0.531372C141.906 0.531372 144.031 5.31262 144.031 10.0939C144.031 15.4064 141.641 19.922 136.594 19.922ZM136.859 17.5314C138.453 17.5314 139.781 16.4689 140.313 14.8751C140.844 13.547 141.109 11.6876 141.109 10.0939C141.109 8.2345 140.844 6.64075 140.047 5.047C139.25 3.71887 138.187 2.922 136.594 2.922C135 2.922 133.672 3.9845 133.141 5.57825C132.609 6.90637 132.344 8.76575 132.344 10.0939C132.344 11.6876 132.609 13.8126 133.141 15.1407C134.203 16.7345 135.531 17.5314 136.859 17.5314ZM121.453 17.5314C123.578 17.5314 124.641 15.672 125.172 13.547C125.172 13.2814 125.438 13.0157 125.703 13.0157H127.031C127.297 13.0157 127.563 13.2814 127.563 13.547C127.031 17.2657 124.641 19.922 121.453 19.922C116.672 19.922 114.547 15.1407 114.547 10.3595C114.547 5.57825 116.672 0.796998 121.453 0.796998C124.641 0.796998 127.031 3.45325 127.563 7.172C127.563 7.43762 127.297 7.70325 127.031 7.70325H125.437C125.172 7.70325 124.906 7.43762 124.906 7.172C124.641 5.047 123.312 3.45325 121.188 3.18762C118 3.18762 116.938 7.172 116.938 10.3595C117.469 13.2814 118.266 17.5314 121.453 17.5314Z" fill="#8C82FC"/>
<path fill-rule="evenodd" clip-rule="evenodd" d="M54.25 11.422C54.25 12.7501 54.25 13.8126 53.7187 14.8751C53.1875 15.9376 52.3906 16.4689 51.3281 16.4689C50 16.4689 49.2031 15.4064 49.2031 14.0782C49.2031 11.1564 51.8594 10.6251 54.25 10.6251V11.422ZM57.7031 19.6564H56.9062C55.8437 18.8595 55.5781 18.3282 55.0469 17.5314C53.1875 19.3907 51.8594 19.922 49.4687 19.922C46.5469 19.922 44.4219 18.0626 44.4219 14.6095C44.4219 11.9532 46.0156 10.0939 47.875 9.03137C49.7344 8.2345 52.125 7.96887 54.25 7.96887V7.43762C54.25 6.64075 54.25 5.57825 53.7187 5.047C53.1875 4.51575 52.6562 4.25013 51.8594 4.25013C50.5312 4.25013 49.4687 4.78137 49.2031 6.37512C49.2031 6.64075 48.9375 6.90637 48.6719 6.90637L45.4844 6.37512C45.2187 6.37512 44.9531 6.1095 44.9531 5.57825C45.75 1.59388 49.2031 0.531372 52.3906 0.531372C53.9844 0.531372 56.1094 1.06262 57.4375 2.12512C59.0312 3.71887 59.0312 5.57825 59.0312 7.96887V13.2814C59.0312 14.8751 59.5625 15.672 60.3594 16.4689C60.625 16.7345 60.625 17.2657 60.3594 17.2657C59.5625 17.797 58.2344 18.8595 57.7031 19.6564ZM10.1562 11.422C10.1562 12.7501 10.1562 13.8126 9.625 14.8751C9.09375 15.9376 8.29687 16.4689 7.23437 16.4689C5.90625 16.4689 5.10937 15.4064 5.10937 14.0782C5.10937 11.1564 7.76562 10.6251 10.1562 10.6251V11.422ZM13.6094 19.6564H12.8125C11.75 18.8595 11.4844 18.3282 10.9531 17.5314C9.09375 19.3907 7.76562 19.922 5.375 19.922C2.45312 19.922 0.328125 18.0626 0.328125 14.6095C0.328125 11.9532 1.92187 10.0939 3.78125 9.03137C5.64062 8.2345 8.03125 7.96887 10.1562 7.96887V7.43762C10.1562 6.64075 10.1562 5.57825 9.625 5.047C9.09375 4.51575 8.29687 4.25013 7.76562 4.25013C6.4375 4.25013 5.375 4.78137 5.10937 6.37512C5.10937 6.64075 4.84375 6.90637 4.57812 6.90637L1.39062 6.37512C1.125 6.37512 0.859375 6.1095 0.859375 5.57825C1.65625 1.59388 5.10937 0.531372 8.29687 0.531372C9.89062 0.531372 12.0156 1.06262 13.3437 2.12512C15.2031 3.71887 14.9375 5.84387 14.9375 7.96887V13.2814C14.9375 14.8751 15.4687 15.672 16.2656 16.4689C16.5312 16.7345 16.5312 17.2657 16.2656 17.2657C15.4687 17.797 14.4062 18.8595 13.6094 19.6564Z" fill="#4D42C8"/>
<path fill-rule="evenodd" clip-rule="evenodd" d="M104.187 0.796998C101.797 0.796998 100.469 1.8595 99.6719 4.25012V1.59388C99.6719 1.32825 99.4062 1.06262 99.1406 1.06262H95.9531C95.6875 1.06262 95.4219 1.32825 95.4219 1.59388V6.90637C99.9375 5.31262 103.922 3.71887 107.375 1.8595C106.312 1.06262 105.25 0.796998 104.187 0.796998ZM84.7969 0.796998C80.0156 0.796998 77.3594 5.047 77.3594 10.3595V11.6876C78.9531 11.422 80.5469 10.8907 82.1406 10.6251V9.82824C82.1406 7.70324 82.4062 4.25012 84.7969 4.25012C85.8594 4.25012 86.6562 4.78137 86.9219 5.84387C87.1875 6.90637 87.4531 7.96887 87.4531 9.03137C89.0469 8.50012 90.6406 8.23449 92.2344 7.70324C91.4375 3.71887 89.0469 0.796998 84.7969 0.796998ZM74.7031 1.06262H63.5469C63.2812 1.06262 63.0156 1.32825 63.0156 1.59388V3.9845C63.0156 4.25012 63.2812 4.51574 63.5469 4.51574H69.3906L63.2812 13.547C65.4062 13.2814 67.2656 13.0157 69.125 12.7501L74.4375 5.047C74.9688 4.25012 75.2344 3.71887 75.2344 3.45325V1.32825C75.5 1.32825 74.9688 1.06262 74.7031 1.06262ZM57.4375 2.39075C56.1094 1.06262 53.9844 0.796998 52.3906 0.796998C49.2031 0.796998 45.75 1.8595 44.9531 5.84387C44.9531 6.37512 45.2187 6.37512 45.4844 6.64075L48.6719 6.90637C48.9375 6.90637 49.2031 6.64074 49.2031 6.37512C49.4687 5.047 50.5312 4.25012 51.8594 4.25012C52.6562 4.25012 53.4531 4.51575 53.7188 5.047C54.25 5.84387 54.25 6.64074 54.25 7.43762V7.96887C52.3906 8.23449 49.7344 8.23449 47.875 9.03137C45.75 9.82824 44.4219 11.6876 44.4219 14.6095H49.2031V14.0782C49.2031 11.1564 51.8594 10.6251 54.25 10.6251V11.422C54.25 12.4845 54.25 13.547 53.7188 14.6095C55.5781 14.6095 57.1719 14.3439 59.0312 14.3439V8.2345C59.0312 5.84387 59.0312 3.71887 57.4375 2.39075ZM36.7188 0.796998C34.8594 0.796998 33 1.8595 32.2031 3.9845C31.1406 1.8595 29.8125 0.796998 27.9531 0.796998C25.8281 0.796998 24.2344 1.8595 23.4375 3.9845V1.8595C23.1719 1.32825 22.9062 1.06262 22.6406 1.06262H19.4531C19.1875 1.06262 18.9219 1.32825 18.9219 1.59388V11.9532C20.5156 12.2189 21.8438 12.4845 23.4375 12.7501V9.56262C23.4375 7.43762 23.4375 4.78137 25.8281 4.78137C28.2188 4.78137 27.9531 7.70325 27.9531 9.56262V13.2814C29.5469 13.547 31.1406 13.547 32.4688 13.8126V9.56262C32.4688 8.50012 32.4688 7.17199 32.7344 6.37512C33 5.57825 33.7969 5.047 34.8594 5.047C35.9219 5.047 36.7188 5.31262 36.7188 6.64075C36.9844 7.43762 36.7188 9.03137 36.7188 9.82824V14.3439C38.3125 14.3439 39.9062 14.6095 41.2344 14.6095V8.2345C41.2344 6.37512 41.5 4.25012 40.4375 2.922C39.6406 1.32825 38.0469 0.796998 36.7188 0.796998ZM8.29688 0.531372C5.10938 0.531372 1.65625 1.59388 0.859375 5.57825C0.859375 6.1095 1.125 6.10949 1.39062 6.37512L4.57812 6.64075C4.84375 6.64075 5.10937 6.37512 5.10937 6.10949C5.375 4.78137 6.4375 3.9845 7.76562 3.9845C8.5625 3.9845 9.35938 4.25012 9.625 4.78137C10.1562 5.57824 10.1562 6.37512 10.1562 7.17199V7.70324C8.5625 8.23449 6.17188 8.23449 4.3125 9.03137C7.76562 10.0939 11.2188 10.8907 14.9375 11.6876V8.2345C14.9375 6.1095 15.2031 3.9845 13.3438 2.39075C12.2813 1.06262 10.1562 0.531372 8.29688 0.531372Z" fill="#8C82FC"/>
</svg>
