<svg width="170" height="54" viewBox="0 0 170 54" fill="none" xmlns="http://www.w3.org/2000/svg">
<g clip-path="url(#clip0_109_579)">
<path d="M27.3033 0C12.2266 0 1.57576e-05 12.1365 1.57576e-05 27.108C-0.00614401 32.79 1.79377 38.3302 5.14538 42.9456C8.49699 47.5611 13.2308 51.0184 18.6778 52.8289C20.0431 53.0786 20.5414 52.2416 20.5414 51.5227C20.5414 50.8781 20.5176 49.1737 20.5039 46.9125C12.9092 48.5494 11.305 43.2776 11.305 43.2776C10.0659 40.1456 8.27393 39.312 8.27393 39.312C5.79244 37.6312 8.45825 37.665 8.45825 37.665C11.1992 37.8574 12.6396 40.4595 12.6396 40.4595C15.0767 44.6006 19.0328 43.4059 20.5892 42.7106C20.835 40.959 21.5416 39.7642 22.3232 39.0859C16.2611 38.4007 9.88502 36.0754 9.88502 25.6905C9.88502 22.7306 10.95 20.3107 12.6976 18.414C12.4143 17.7289 11.479 14.9715 12.9638 11.2421C12.9638 11.2421 15.2576 10.5131 20.4732 14.0197C22.7012 13.4177 25.0003 13.1113 27.3101 13.1085C29.6199 13.113 31.919 13.4206 34.147 14.0231C39.3591 10.5165 41.6495 11.2455 41.6495 11.2455C43.1377 14.9782 42.2024 17.7322 41.9226 18.4174C43.6736 20.3141 44.7283 22.734 44.7283 25.6939C44.7283 36.1057 38.3454 38.3974 32.2628 39.069C33.2425 39.906 34.1163 41.5597 34.1163 44.0876C34.1163 47.7124 34.0821 50.6351 34.0821 51.5227C34.0821 52.2484 34.5737 53.0921 35.9595 52.8255C41.4011 51.0107 46.1291 47.5521 49.476 42.9378C52.823 38.3234 54.6199 32.7864 54.6133 27.108C54.6133 12.1365 42.3868 0 27.3033 0Z" fill="#44E4C9"/>
</g>
<g clip-path="url(#clip1_109_579)">
<path fill-rule="evenodd" clip-rule="evenodd" d="M109.915 36.8187H109.869C109.89 36.8187 109.903 36.8411 109.924 36.8434H109.938L109.915 36.8209V36.8187ZM109.924 36.8434C109.713 36.8456 109.182 36.9556 108.621 36.9556C106.85 36.9556 106.238 36.1476 106.238 35.0927V28.0654H109.847C110.051 28.0654 110.21 27.8858 110.21 27.6389V23.8234C110.21 23.6214 110.028 23.4418 109.847 23.4418H106.238V18.706C106.238 18.5265 106.124 18.4143 105.92 18.4143H101.017C100.812 18.4143 100.699 18.5265 100.699 18.706V23.5765C100.699 23.5765 98.2247 24.1825 98.0658 24.2049C97.8842 24.2498 97.7707 24.4069 97.7707 24.5865V27.6389C97.7707 27.8858 97.9523 28.0654 98.1566 28.0654H100.676V35.4271C100.676 40.9036 104.535 41.4647 107.168 41.4647C108.371 41.4647 109.824 41.0831 110.051 40.9709C110.187 40.926 110.255 40.7689 110.255 40.6118V37.2451C110.258 37.1497 110.227 37.0563 110.166 36.9821C110.105 36.9079 110.019 36.8578 109.924 36.8411V36.8434ZM163.712 31.9056C163.712 27.8432 162.055 27.3045 160.307 27.4841C158.945 27.5738 157.856 28.2472 157.856 28.2472V36.1476C157.856 36.1476 158.968 36.9107 160.625 36.9556C162.963 37.0229 163.712 36.1925 163.712 31.9056ZM169.228 31.5465C169.228 39.2449 166.709 41.4445 162.305 41.4445C158.582 41.4445 156.585 39.5816 156.585 39.5816C156.585 39.5816 156.494 40.6141 156.38 40.7487C156.312 40.8834 156.199 40.9283 156.063 40.9283H152.703C152.476 40.9283 152.272 40.7487 152.272 40.5467L152.317 15.6109C152.317 15.4089 152.499 15.2294 152.703 15.2294H157.538C157.742 15.2294 157.924 15.4089 157.924 15.6109V24.0725C157.924 24.0725 159.785 22.8829 162.509 22.8829L162.487 22.8381C165.21 22.8381 169.228 23.8481 169.228 31.5465V31.5465ZM149.434 23.4441H144.668C144.418 23.4441 144.282 23.6236 144.282 23.8705V36.0803C144.282 36.0803 143.033 36.9556 141.331 36.9556C139.628 36.9556 139.129 36.1925 139.129 34.5092V23.8458C139.129 23.6438 138.947 23.4643 138.743 23.4643H133.885C133.681 23.4643 133.499 23.6438 133.499 23.8458V35.3149C133.499 40.2527 136.291 41.4871 140.128 41.4871C143.283 41.4871 145.848 39.7589 145.848 39.7589C145.848 39.7589 145.961 40.6343 146.03 40.7689C146.075 40.8811 146.234 40.9709 146.393 40.9709H149.434C149.684 40.9709 149.82 40.7914 149.82 40.5894L149.866 23.8234C149.866 23.6214 149.684 23.4418 149.434 23.4418V23.4441ZM95.6369 23.4216H90.802C90.5977 23.4216 90.4161 23.6236 90.4161 23.8705V40.3447C90.4161 40.7936 90.7112 40.9507 91.0971 40.9507H95.4553C95.9093 40.9507 96.0228 40.7487 96.0228 40.3447V23.8009C96.0228 23.5989 95.8412 23.4194 95.6369 23.4194V23.4216ZM93.2535 15.8354C91.5056 15.8354 90.121 17.2045 90.121 18.9327C90.121 20.6609 91.5056 22.0301 93.2535 22.0301C94.9559 22.0301 96.3406 20.6609 96.3406 18.9327C96.3406 17.2045 94.9559 15.8354 93.2535 15.8354ZM130.685 15.2743H125.895C125.691 15.2743 125.509 15.4538 125.509 15.6558V24.8356H117.996V15.6536C117.996 15.4516 117.814 15.272 117.61 15.272H112.775C112.571 15.272 112.389 15.4516 112.389 15.6536V40.5894C112.389 40.7914 112.593 40.9709 112.775 40.9709H117.61C117.814 40.9709 117.996 40.7914 117.996 40.5894V29.9283H125.509L125.464 40.5894C125.464 40.7914 125.645 40.9709 125.85 40.9709H130.685C130.889 40.9709 131.071 40.7914 131.071 40.5894V15.6536C131.071 15.4516 130.889 15.272 130.685 15.272V15.2743ZM87.851 26.3147V39.1978C87.851 39.2876 87.8283 39.4447 87.7148 39.4896C87.7148 39.4896 84.8774 41.4871 80.2014 41.4871C74.5492 41.4871 67.8529 39.7365 67.8529 28.2C67.8529 16.6636 73.7093 14.2845 79.4296 14.3069C84.378 14.3069 86.3756 15.4067 86.6934 15.6087C86.7842 15.7209 86.8296 15.8107 86.8296 15.9229L85.8762 19.918C85.8762 20.12 85.6719 20.3669 85.4222 20.2996C84.605 20.0527 83.3793 19.5589 80.4965 19.5589C77.1596 19.5589 73.5731 20.5016 73.5731 27.9307C73.5731 35.3598 76.978 36.2351 79.4296 36.2351C81.5179 36.2351 82.267 35.9883 82.267 35.9883V30.826H78.9302C78.6805 30.826 78.4989 30.6465 78.4989 30.4445V26.3147C78.4989 26.1127 78.6805 25.9331 78.9302 25.9331H87.4198C87.6694 25.9331 87.851 26.1127 87.851 26.3147Z" fill="#8C82FC"/>
</g>
<defs>
<clipPath id="clip0_109_579">
<rect width="54.6133" height="54" fill="white"/>
</clipPath>
<clipPath id="clip1_109_579">
<rect width="102.147" height="35.9111" fill="white" transform="translate(67.8529 9.81812)"/>
</clipPath>
</defs>
</svg>
