<svg width="160" height="43" viewBox="0 0 160 43" fill="none" xmlns="http://www.w3.org/2000/svg">
<g clip-path="url(#clip0_109_616)">
<path d="M117.876 3.0162C117.876 1.35127 119.269 0 120.987 0H156.865C158.584 0 159.977 1.35127 159.977 3.0162V39.0896C159.977 40.7551 158.584 42.1053 156.865 42.1053H120.987C119.269 42.1053 117.876 40.7551 117.876 39.0902V3.01564V3.0162Z" fill="#44E4C9"/>
<path d="M0.0218506 35.2694H17.5918V29.5363H6.38139V7.66586H0.0218506V35.2694ZM26.4874 35.2694V16.2567H20.1284V35.2694H26.4874ZM23.3085 13.6612C25.5256 13.6612 26.9058 12.2012 26.9058 10.3756C26.8647 8.51019 25.5256 7.09155 23.3507 7.09155C21.1753 7.09155 19.7528 8.51074 19.7528 10.3756C19.7528 12.2012 21.1331 13.6612 23.2668 13.6612H23.3085ZM29.4396 35.2694H35.7986V24.6514C35.7986 24.0832 35.8397 23.515 36.0081 23.1102C36.4671 21.9748 37.5134 20.7986 39.2704 20.7986C41.5719 20.7986 42.4927 22.5425 42.4927 25.0971V35.2689H48.8505V24.3676C48.8505 18.5274 45.7133 15.8099 41.5291 15.8099C38.099 15.8099 36.5926 17.7156 35.7558 19.0139H35.7986V16.2567H29.4396C29.5235 18.0409 29.4396 35.2694 29.4396 35.2694ZM57.8217 7.66586H51.4627V35.2694H57.8217V29.105L59.4108 27.1165L64.3896 35.2694H72.2122L63.8461 23.4669L71.1664 15.4377H63.5116C63.5116 15.4377 58.2823 22.6209 57.8217 23.4736V7.66586Z" fill="#8C82FC"/>
<path d="M89.217 27.3385C89.3009 26.8503 89.4265 25.9138 89.4265 24.8546C89.4265 19.9399 86.916 14.9501 80.3065 14.9501C73.2362 14.9501 69.9728 20.507 69.9728 25.5471C69.9728 31.7805 73.9475 35.6731 80.8916 35.6731C83.6532 35.6731 86.2042 35.2688 88.2969 34.4168L87.46 30.2431C85.7442 30.8086 83.9872 31.0919 81.8123 31.0919C78.8423 31.0919 76.249 29.8798 76.0395 27.2976L89.217 27.3374V27.3385ZM75.9979 23.0632C76.1651 21.4408 77.2537 19.047 79.9725 19.047C82.8586 19.047 83.5287 21.6026 83.5287 23.0632H75.9984H75.9979ZM105.122 7.66584V17.2214H105.038C104.118 15.8839 102.193 14.9915 99.6429 14.9915C94.7475 14.9915 90.4389 18.8846 90.48 25.5355C90.48 31.7004 94.3713 35.7156 99.2234 35.7156C101.859 35.7156 104.369 34.5791 105.625 32.389H105.75L106.001 35.2694H111.648C111.565 33.9308 111.481 31.6193 111.481 29.348V7.66528H105.122L105.122 7.66584ZM105.122 26.4687C105.122 26.9547 105.081 27.4423 104.996 27.8465C104.621 29.5915 103.115 30.8069 101.274 30.8069C98.6388 30.8069 96.9229 28.6986 96.9229 25.3732C96.9229 22.2509 98.3882 19.7361 101.316 19.7361C103.282 19.7361 104.662 21.0742 105.039 22.7363C105.122 23.1024 105.122 23.5083 105.122 23.8728V26.4682V26.4687Z" fill="#8C82FC"/>
<path d="M130.638 35.2462V16.2335H124.279V35.2462H130.639H130.638ZM127.46 13.6381C129.677 13.6381 131.057 12.178 131.057 10.3535C131.015 8.48755 129.677 7.06836 127.502 7.06836C125.325 7.06836 123.904 8.48755 123.904 10.3535C123.904 12.178 125.284 13.6381 127.418 13.6381H127.459H127.46ZM134.158 35.2462H140.516V24.6299C140.516 24.0622 140.558 23.4934 140.726 23.0881C141.185 21.9522 142.231 20.7765 143.988 20.7765C146.289 20.7765 147.21 22.5199 147.21 25.0761V35.2462H153.568V24.3449C153.568 18.5053 150.431 15.7878 146.248 15.7878C142.818 15.7878 141.311 17.693 140.474 18.9907H140.517V16.234H134.158C134.241 18.0177 134.158 35.2468 134.158 35.2468V35.2462Z" fill="white"/>
</g>
<defs>
<clipPath id="clip0_109_616">
<rect width="160" height="42.1053" fill="white"/>
</clipPath>
</defs>
</svg>
