<svg width="180" height="38" viewBox="0 0 180 38" fill="none" xmlns="http://www.w3.org/2000/svg">
<g clip-path="url(#clip0_109_627)">
<path d="M76.2058 26.461C76.4192 26.461 76.533 26.3899 76.6469 26.2049L81.5413 17.0562C82.1247 15.9607 82.708 14.7655 82.9926 14.1821C83.0353 14.0683 83.1349 14.111 83.1349 14.1821V30.4022C83.1349 30.5872 83.2487 30.6868 83.4194 30.6868H86.4642C86.6492 30.6868 86.7488 30.5729 86.7488 30.4022V8.60471C86.7488 8.41974 86.635 8.32015 86.4642 8.32015H82.4661C82.21 8.32015 82.0678 8.43397 81.9539 8.60471L75.6082 21.0543C75.5655 21.1255 75.5371 21.1255 75.4944 21.0543L69.1486 8.60471C69.0348 8.41974 68.8925 8.32015 68.6364 8.32015H64.6383C64.4534 8.32015 64.3538 8.43397 64.3538 8.60471V30.4164C64.3538 30.6014 64.4676 30.701 64.6383 30.701H67.6831C67.8681 30.701 67.9677 30.5872 67.9677 30.4164V14.1964C67.9677 14.1252 68.0815 14.0825 68.11 14.1964C68.3945 14.7797 68.9779 15.9749 69.5612 17.0704L74.4557 26.2191C74.5695 26.4041 74.6691 26.4752 74.8968 26.4752H76.2058V26.461ZM124.012 7.77948C124.012 7.59451 123.898 7.49491 123.728 7.49491H120.683C120.498 7.49491 120.398 7.60874 120.398 7.77948V14.9362C120.398 15.05 120.356 15.0785 120.256 15.05C118.919 14.4667 117.638 14.1395 116.187 14.1395C111.691 14.1395 108.347 17.1843 108.347 22.4202C108.347 28.2964 111.861 30.9856 115.902 30.9856C117.795 30.9856 119.274 30.4733 120.797 29.392L123.301 30.6583C123.742 30.8717 124.026 30.6583 124.026 30.2599V7.77948H124.012ZM90.1493 22.4344C90.1493 28.4956 94.2186 30.9571 98.2736 30.9571C100.635 30.9571 102.841 30.3026 104.733 28.894C104.918 28.7517 104.947 28.6379 104.847 28.4245L103.865 26.5748C103.751 26.3614 103.609 26.3614 103.424 26.461C101.688 27.4712 100.237 27.955 98.487 27.955C96.4239 27.955 94.0621 26.9021 93.7348 23.4873C93.7348 23.4446 93.7348 23.3735 93.8486 23.3735H105.203C105.573 23.3735 105.53 22.7617 105.53 22.2068C105.53 16.359 102.044 14.111 98.1598 14.111C93.621 14.1252 90.1493 17.1416 90.1493 22.4344ZM142.879 27.955C141.356 27.955 140.303 27.3716 139.834 26.3187C139.62 25.8492 139.507 25.2232 139.507 24.2841V14.6232C139.507 14.4382 139.393 14.3386 139.222 14.3386H136.163C135.978 14.3386 135.878 14.4525 135.878 14.6232V24.4264C135.878 25.9488 136.092 26.9732 136.462 27.7985C137.444 29.9327 139.549 30.9571 142.31 30.9571C144.373 30.9571 145.938 30.4449 147.503 29.3635L150.007 30.6298C150.448 30.8433 150.733 30.6298 150.733 30.2315V14.6374C150.733 14.4525 150.619 14.3529 150.448 14.3529H147.403C147.218 14.3529 147.119 14.4667 147.119 14.6374V24.6967C147.119 25.6073 147.076 26.0057 146.507 26.5891C145.34 27.6704 144.145 27.955 142.879 27.955ZM111.989 22.4344C111.989 18.9486 113.91 17.1416 116.343 17.1416C117.581 17.1416 118.705 17.4261 119.644 18.2656C120.299 18.849 120.37 19.3612 120.37 20.5848V24.6825C120.37 25.5931 120.327 25.9915 119.758 26.5748C118.634 27.6704 117.439 27.955 116.343 27.955C114.422 27.955 111.989 26.7171 111.989 22.4344ZM128.252 30.4164C128.252 30.6014 128.366 30.701 128.537 30.701H131.582C131.767 30.701 131.866 30.5872 131.866 30.4164V14.6232C131.866 14.4382 131.752 14.3386 131.582 14.3386H128.537C128.352 14.3386 128.252 14.4525 128.252 14.6232V30.4164ZM93.8771 20.3998C94.247 18.3367 95.7694 16.9851 98.0886 16.9851C100.408 16.9851 101.831 18.5786 101.831 20.471C101.831 20.5421 101.788 20.5848 101.717 20.5848H93.9909C93.8486 20.5848 93.8771 20.4425 93.8771 20.3998ZM127.925 9.44417C127.925 10.5682 128.864 11.4788 130.059 11.4788C131.254 11.4788 132.193 10.5682 132.193 9.44417C132.193 8.32015 131.254 7.40955 130.059 7.40955C128.864 7.40955 127.925 8.32015 127.925 9.44417ZM176.372 30.4164C176.372 30.6014 176.486 30.701 176.656 30.701H179.701C179.886 30.701 179.986 30.5872 179.986 30.4164V20.8409C179.986 18.9912 179.701 17.8245 179.217 16.8855C178.207 14.9647 176.244 14.1252 173.839 14.1252C171.662 14.1252 169.67 14.8935 168.105 16.416C166.938 14.8935 165.231 14.1252 163.168 14.1252C161.205 14.1252 159.654 14.6374 158.16 15.7188L155.656 14.4525C155.214 14.239 154.93 14.4525 154.93 14.8509V30.4164C154.93 30.6014 155.044 30.701 155.214 30.701H158.259C158.444 30.701 158.544 30.5872 158.544 30.4164V20.3998C158.544 19.4608 158.615 19.0197 159.085 18.5075C159.881 17.6396 161.076 17.17 162.314 17.17C164.349 17.17 165.615 18.3367 165.615 20.471V30.4164C165.615 30.6014 165.729 30.701 165.9 30.701H168.945C169.13 30.701 169.229 30.5872 169.229 30.4164V20.3998C169.229 19.4608 169.3 19.0197 169.77 18.5075C170.567 17.6396 171.762 17.17 173 17.17C174.337 17.17 175.361 17.6823 175.902 18.664C176.158 19.1762 176.301 19.8307 176.301 20.7271V30.4164H176.372Z" fill="#8C82FC"/>
<path d="M29.4949 0.053547C29.2672 -0.0460498 29.0965 0.053547 29.0965 0.309653V30.7721L42.4425 37.4308C43.097 37.7581 43.6377 37.4308 43.6377 36.6767V7.3668C43.6377 7.21029 43.5665 7.08224 43.4242 7.02533L29.4949 0.053547Z" fill="#8EF6E4"/>
<path d="M14.5411 23.5015L28.8546 0.252761C28.9827 0.0393388 29.2815 -0.04603 29.4949 0.067795L43.3247 6.96844C43.4954 7.0538 43.5665 7.26723 43.4527 7.43796L29.0823 30.7721L14.5411 23.5015Z" fill="#44E4C9"/>
<path d="M1.60776 0.665467C0.725619 0.210167 0.426828 0.551642 0.93904 1.40533L14.5411 23.5016L29.0823 30.7864L14.6407 7.28154C14.5838 7.18195 14.4842 7.09658 14.3846 7.03967L1.60776 0.665467Z" fill="#8EF6E4"/>
<path d="M14.5411 36.691C14.5411 37.4309 14.0005 37.7724 13.346 37.4451L0.811003 31.1705C0.355703 30.9429 0 30.3595 0 29.8615V0.750795C0 0.252811 0.355703 0.025161 0.811003 0.252811L14.3704 7.03963C14.47 7.09654 14.5554 7.21036 14.5554 7.32419V36.691H14.5411Z" fill="#44E4C9"/>
</g>
<defs>
<clipPath id="clip0_109_627">
<rect width="180" height="37.584" fill="white"/>
</clipPath>
</defs>
</svg>
