<svg width="190" height="40" viewBox="0 0 190 40" fill="none" xmlns="http://www.w3.org/2000/svg">
<g clip-path="url(#clip0_109_573)">
<path d="M190 18.0962V14.8028H185.85V9.68289L185.711 9.72528L181.813 10.9006L181.736 10.9236V14.803H175.585V12.6418C175.585 11.6355 175.813 10.8655 176.263 10.3519C176.71 9.84448 177.349 9.58652 178.164 9.58652C178.75 9.58652 179.357 9.72257 179.967 9.99085L180.121 10.0582V6.58989L180.048 6.56381C179.479 6.362 178.704 6.26038 177.744 6.26038C176.534 6.26038 175.434 6.51997 174.475 7.03444C173.515 7.54964 172.76 8.28512 172.232 9.22023C171.705 10.1543 171.437 11.233 171.437 12.4268V14.8028H168.548V18.0962H171.437V31.9705H175.585V18.0962H181.736V26.913C181.736 30.5443 183.474 32.3844 186.902 32.3844C187.465 32.3844 188.057 32.3194 188.663 32.192C189.279 32.0612 189.698 31.9306 189.945 31.7911L190 31.7592V28.4355L189.831 28.5454C189.606 28.6932 189.326 28.8141 188.997 28.9039C188.667 28.9954 188.391 29.0412 188.178 29.0412C187.375 29.0412 186.781 28.828 186.412 28.4072C186.04 27.9826 185.851 27.24 185.851 26.2013V18.0962H190ZM159.285 29.0418C157.78 29.0418 156.593 28.5498 155.756 27.5806C154.915 26.6065 154.488 25.2178 154.488 23.4534C154.488 21.633 154.915 20.2082 155.757 19.217C156.594 18.2322 157.769 17.7324 159.251 17.7324C160.69 17.7324 161.835 18.2098 162.655 19.1519C163.479 20.099 163.897 21.5123 163.897 23.3539C163.897 25.2182 163.504 26.6502 162.728 27.6081C161.958 28.5588 160.8 29.0418 159.285 29.0418ZM159.47 14.3892C156.597 14.3892 154.316 15.2187 152.69 16.8547C151.064 18.4909 150.24 20.7551 150.24 23.5851C150.24 26.273 151.044 28.4351 152.631 30.0102C154.218 31.5859 156.378 32.384 159.05 32.384C161.834 32.384 164.07 31.5429 165.696 29.8843C167.321 28.2275 168.145 25.9846 168.145 23.2208C168.145 20.4908 167.372 18.3126 165.847 16.748C164.321 15.1827 162.175 14.3892 159.47 14.3892ZM143.552 14.3892C141.599 14.3892 139.983 14.8818 138.748 15.853C137.506 16.8299 136.876 18.1112 136.876 19.6617C136.876 20.4676 137.012 21.1836 137.279 21.7908C137.549 22.4 137.965 22.9364 138.519 23.3866C139.068 23.8331 139.916 24.3008 141.04 24.7767C141.985 25.1599 142.689 25.4839 143.137 25.7394C143.574 25.9897 143.885 26.2413 144.06 26.4864C144.23 26.7263 144.317 27.0545 144.317 27.4596C144.317 28.613 143.44 29.1742 141.637 29.1742C140.968 29.1742 140.205 29.0365 139.37 28.7652C138.54 28.4979 137.757 28.1065 137.048 27.6047L136.875 27.483V31.4189L136.939 31.4478C137.525 31.7149 138.265 31.94 139.138 32.1172C140.008 32.2946 140.799 32.3848 141.486 32.3848C143.606 32.3848 145.313 31.8899 146.559 30.9129C147.813 29.9292 148.448 28.6177 148.448 27.0136C148.448 25.8564 148.106 24.864 147.432 24.0637C146.762 23.2699 145.6 22.5411 143.979 21.8969C142.688 21.3861 141.861 20.962 141.519 20.6365C141.19 20.322 141.023 19.8773 141.023 19.3141C141.023 18.8148 141.23 18.4148 141.653 18.0909C142.079 17.7654 142.673 17.5998 143.418 17.5998C144.109 17.5998 144.816 17.7074 145.519 17.9183C146.222 18.1291 146.839 18.4116 147.354 18.757L147.524 18.8711V15.1376L147.459 15.11C146.984 14.9091 146.357 14.7372 145.595 14.5977C144.838 14.4592 144.15 14.3892 143.552 14.3892ZM126.063 29.0418C124.558 29.0418 123.37 28.5498 122.534 27.5806C121.692 26.6065 121.267 25.2182 121.267 23.4534C121.267 21.633 121.693 20.2082 122.535 19.217C123.371 18.2322 124.547 17.7324 126.03 17.7324C127.467 17.7324 128.612 18.2098 129.432 19.1519C130.257 20.099 130.675 21.5123 130.675 23.3539C130.675 25.2182 130.281 26.6502 129.506 27.6081C128.735 28.5588 127.578 29.0418 126.063 29.0418ZM126.248 14.3892C123.375 14.3892 121.093 15.2187 119.468 16.8547C117.842 18.4909 117.017 20.7551 117.017 23.5851C117.017 26.2741 117.822 28.4351 119.409 30.0102C120.996 31.5859 123.156 32.384 125.828 32.384C128.611 32.384 130.848 31.5429 132.474 29.8843C134.099 28.2275 134.923 25.9846 134.923 23.2208C134.923 20.4908 134.15 18.3126 132.625 16.748C131.098 15.1827 128.953 14.3892 126.248 14.3892ZM110.721 17.7759V14.8028H106.624V31.9701H110.721V23.1884C110.721 21.6951 111.065 20.4684 111.743 19.5418C112.412 18.6262 113.304 18.1623 114.392 18.1623C114.761 18.1623 115.176 18.2222 115.624 18.3409C116.068 18.4588 116.39 18.5869 116.58 18.7217L116.752 18.8447V14.7735L116.686 14.7454C116.304 14.5856 115.764 14.505 115.081 14.505C114.052 14.505 113.13 14.8311 112.341 15.4731C111.648 16.0374 111.148 16.8111 110.765 17.7759H110.721ZM99.2866 14.3892C97.4069 14.3892 95.7304 14.7865 94.3043 15.5696C92.8752 16.3546 91.7701 17.4752 91.0182 18.9001C90.2695 20.3216 89.8895 21.9821 89.8895 23.8338C89.8895 25.4559 90.258 26.9444 90.9864 28.2563C91.7151 29.5704 92.7466 30.5984 94.0523 31.3114C95.3561 32.0235 96.8631 32.3846 98.5316 32.3846C100.479 32.3846 102.141 32.0009 103.474 31.2442L103.528 31.2138V27.5141L103.356 27.638C102.752 28.0715 102.077 28.4175 101.351 28.6668C100.627 28.9159 99.9669 29.0418 99.3879 29.0418C97.7802 29.0418 96.4896 28.546 95.5528 27.5685C94.614 26.5897 94.1379 25.2153 94.1379 23.4858C94.1379 21.7455 94.6344 20.3358 95.6127 19.2956C96.5881 18.2585 97.8811 17.7324 99.4556 17.7324C100.802 17.7324 102.115 18.1819 103.356 19.0695L103.528 19.1925V15.2943L103.472 15.2635C103.005 15.0057 102.368 14.7928 101.577 14.6314C100.789 14.4704 100.019 14.3892 99.2866 14.3892ZM87.0676 14.803H82.9704V31.9701H87.0676V14.803ZM85.0609 7.48968C84.3866 7.48968 83.7984 7.71594 83.3152 8.16429C82.83 8.61391 82.5839 9.18001 82.5839 9.8481C82.5839 10.5057 82.827 11.0615 83.3077 11.4991C83.7852 11.9355 84.3752 12.1567 85.0611 12.1567C85.7468 12.1567 86.339 11.9355 86.8222 11.4999C87.3086 11.0615 87.5552 10.5059 87.5552 9.8481C87.5552 9.20338 87.3152 8.64308 86.8423 8.18241C86.3697 7.72264 85.7702 7.48968 85.0609 7.48968ZM74.8381 13.5364V31.9701H79.0195V8.0152H73.2323L65.8763 25.8082L58.7378 8.0152H52.715V31.9699H56.6444V13.5346H56.7793L64.3174 31.9701H67.2827L74.7032 13.5364H74.8381Z" fill="#8C82FC"/>
<path d="M19.2745 19.0084H-3.05176e-05V0.0112305H19.2745V19.0084Z" fill="#8C82FC"/>
<path d="M40.5556 19.0075H21.2816V0.010376H40.5556V19.0075Z" fill="#44E4C9"/>
<path d="M19.2739 39.9897H-3.05176e-05V20.9928H19.2739V39.9897Z" fill="#44E4C9"/>
<path d="M40.5556 39.9897H21.2816V20.9928H40.5556V39.9897Z" fill="#8C82FC"/>
</g>
<defs>
<clipPath id="clip0_109_573">
<rect width="190" height="40" fill="white"/>
</clipPath>
</defs>
</svg>
