<svg width="170" height="43" viewBox="0 0 170 43" fill="none" xmlns="http://www.w3.org/2000/svg">
<path d="M131.413 11.2173H122.238C121.698 11.2173 121.159 11.7514 120.889 12.2856L117.111 35.7887C117.111 36.3229 117.381 36.59 117.921 36.59H122.778C123.317 36.59 123.587 36.3229 123.587 35.7887L124.667 29.1117C124.667 28.5775 125.206 28.0434 126.016 28.0434H128.984C135.191 28.0434 138.698 25.1055 139.508 19.2297C140.048 16.826 139.508 14.6893 138.429 13.3539C136.81 12.0185 134.381 11.2173 131.413 11.2173ZM132.492 20.0309C131.952 23.2359 129.524 23.2359 127.095 23.2359H125.476L126.556 17.0931C126.556 16.826 126.825 16.5589 127.365 16.5589H127.905C129.524 16.5589 131.143 16.5589 131.952 17.6272C132.492 17.8943 132.492 18.6955 132.492 20.0309Z" fill="#453BAE"/>
<path d="M65.3016 11.2173H56.127C55.5873 11.2173 55.0476 11.7514 54.7778 12.2856L51 35.7887C51 36.3229 51.2698 36.59 51.8095 36.59H56.127C56.6667 36.59 57.2063 36.0558 57.4762 35.5216L58.5556 29.1117C58.5556 28.5775 59.0952 28.0434 59.9048 28.0434H62.873C69.0794 28.0434 72.5873 25.1055 73.3968 19.2297C73.9365 16.826 73.3968 14.6893 72.3175 13.3539C70.6984 12.0185 68.5397 11.2173 65.3016 11.2173ZM66.381 20.031C65.8413 23.2359 63.4127 23.2359 60.9841 23.2359H59.6349L60.7143 17.0931C60.7143 16.826 60.9841 16.5589 61.5238 16.5589H62.0635C63.6825 16.5589 65.3016 16.5589 66.1111 17.6272C66.381 17.8943 66.6508 18.6955 66.381 20.031ZM93.0952 19.7639H88.7778C88.5079 19.7639 87.9683 20.031 87.9683 20.298L87.6984 21.6334L87.4286 21.0993C86.3492 19.7639 84.4603 19.2297 82.3016 19.2297C77.4445 19.2297 73.127 22.9688 72.3175 28.0434C71.7778 30.7142 72.5873 33.1179 73.9365 34.7204C75.2857 36.3229 77.1746 36.857 79.6032 36.857C83.6508 36.857 85.8095 34.4533 85.8095 34.4533L85.5397 35.7887C85.5397 36.3229 85.8095 36.59 86.3492 36.59H90.3968C90.9365 36.59 91.4762 36.0558 91.746 35.5216L94.1746 20.5651C93.9048 20.298 93.3651 19.7639 93.0952 19.7639ZM86.8889 28.3105C86.3492 30.7142 84.4603 32.5838 81.7619 32.5838C80.4127 32.5838 79.3333 32.0496 78.7937 31.5154C78.254 30.7142 77.9841 29.6459 77.9841 28.3105C78.254 25.9067 80.4127 24.0372 82.8413 24.0372C84.1905 24.0372 85 24.5713 85.8095 25.1055C86.6191 25.9067 86.8889 27.2421 86.8889 28.3105Z" fill="#8C82FC"/>
<path d="M158.937 19.7639H154.619C154.349 19.7639 153.81 20.031 153.81 20.2981L153.54 21.6335L153.27 21.0993C152.191 19.7639 150.302 19.2297 148.143 19.2297C143.286 19.2297 138.968 22.9689 138.159 28.0434C137.619 30.7142 138.429 33.1179 139.778 34.7204C141.127 36.3229 143.016 36.8571 145.445 36.8571C149.492 36.8571 151.651 34.4533 151.651 34.4533L151.381 35.7888C151.381 36.3229 151.651 36.59 152.191 36.59H156.238C156.778 36.59 157.318 36.0558 157.587 35.5217L160.016 20.5651C159.746 20.2981 159.476 19.7639 158.937 19.7639ZM152.73 28.3105C152.191 30.7142 150.302 32.5838 147.603 32.5838C146.254 32.5838 145.175 32.0496 144.635 31.5155C144.095 30.7142 143.825 29.6459 143.825 28.3105C144.095 25.9068 146.254 24.0372 148.683 24.0372C150.032 24.0372 150.841 24.5714 151.651 25.1055C152.73 25.9068 153 27.2422 152.73 28.3105Z" fill="#453BAE"/>
<path d="M116.571 19.764H111.984C111.444 19.764 111.175 20.0311 110.905 20.2982L104.968 29.3789L102.27 20.8324C102 20.2982 101.73 20.0311 100.921 20.0311H96.6032C96.0635 20.0311 95.7937 20.5653 95.7937 21.0994L100.651 35.2547L96.0635 41.6647C95.7937 42.1988 96.0635 43.0001 96.6032 43.0001H100.921C101.46 43.0001 101.73 42.733 102 42.4659L116.841 21.3665C117.651 20.5653 117.111 19.764 116.571 19.764Z" fill="#8C82FC"/>
<path d="M164.063 12.0186L160.286 36.0558C160.286 36.59 160.556 36.8571 161.095 36.8571H164.873C165.413 36.8571 165.952 36.3229 166.222 35.7888L170 12.2857C170 11.7515 169.73 11.4844 169.19 11.4844H164.873C164.603 11.2173 164.333 11.4844 164.063 12.0186Z" fill="#453BAE"/>
<path d="M31.0317 3.20497C29.1429 1.06833 25.6349 0 20.7778 0H7.28572C6.47619 0 5.66667 0.801243 5.39683 1.60249L0 36.5901C0 37.3913 0.539683 37.9255 1.07937 37.9255H9.44444L11.6032 24.8385V25.3727C11.873 24.5714 12.6825 23.7702 13.4921 23.7702H17.5397C25.3651 23.7702 31.3016 20.5652 33.1905 11.7516V10.9503C32.9206 10.9503 32.9206 10.9503 33.1905 10.9503C33.4603 7.47826 32.9206 5.34162 31.0317 3.20497Z" fill="#8C82FC"/>
<path d="M32.9206 10.9503V11.7516C31.0317 20.8323 25.0952 23.7702 17.2698 23.7702H13.2222C12.4127 23.7702 11.6032 24.5714 11.3333 25.3727L8.63492 41.6646C8.63492 42.1988 8.90476 42.7329 9.71428 42.7329H16.7302C17.5397 42.7329 18.3492 42.1988 18.3492 41.3975V41.1305L19.6984 32.8509V32.3168C19.6984 31.5155 20.5079 30.9814 21.3175 30.9814H22.3968C29.1429 30.9814 34.5397 28.3106 35.8889 20.2981C36.4286 17.0932 36.1587 14.1553 34.5397 12.2857C34.2698 11.7516 33.7302 11.2174 32.9206 10.9503Z" fill="#453BAE"/>
<path d="M31.0317 10.1491C30.7619 10.1491 30.4921 9.88206 30.2222 9.88206C29.9524 9.88206 29.6825 9.88206 29.4127 9.61498C28.3333 9.3479 27.254 9.3479 25.9048 9.3479H15.381C15.1111 9.3479 14.8413 9.3479 14.5714 9.61498C14.0318 9.88206 13.7619 10.4162 13.7619 10.9504L11.6032 24.8386V25.3727C11.873 24.5715 12.6825 23.7703 13.4921 23.7703H17.5397C25.3651 23.7703 31.3016 20.5653 33.1905 11.7516C33.1905 11.4845 33.1905 11.2175 33.4603 10.9504C32.9206 10.6833 32.6508 10.4162 32.1111 10.4162C31.3016 10.1491 31.3016 10.1491 31.0317 10.1491Z" fill="#655CD5"/>
</svg>
