<svg width="160" height="52" viewBox="0 0 160 52" fill="none" xmlns="http://www.w3.org/2000/svg">
<g clip-path="url(#clip0_109_621)">
<path d="M26.0224 51.8645C40.2422 51.8645 51.7696 40.3015 51.7696 26.0378C51.7696 11.7742 40.2422 0.211182 26.0224 0.211182C11.8026 0.211182 0.275208 11.7742 0.275208 26.0378C0.275208 40.3015 11.8026 51.8645 26.0224 51.8645Z" fill="#44E4C9"/>
<path d="M43.1936 26.0385C43.1168 23.9585 41.376 22.3343 39.296 22.4049C38.3744 22.437 37.4976 22.8157 36.832 23.4513C33.9008 21.4483 30.4576 20.3506 26.9184 20.2735L28.5888 12.2167L34.0992 13.3787C34.2528 14.7975 35.52 15.8246 36.9344 15.6706C38.3488 15.5165 39.3728 14.2454 39.2192 12.8266C39.0656 11.4078 37.7984 10.3807 36.384 10.5347C35.5712 10.6182 34.8416 11.0933 34.4384 11.7994L28.128 10.5347C27.6992 10.4384 27.2704 10.7081 27.1744 11.1446V11.1575L25.2736 20.1194C21.6896 20.1772 18.2016 21.2814 15.232 23.2972C13.7216 21.872 11.3408 21.9427 9.91997 23.4641C8.49917 24.9792 8.56957 27.3674 10.0864 28.7925C10.3808 29.0686 10.72 29.3061 11.0976 29.473C11.072 29.8518 11.072 30.2306 11.0976 30.6093C11.0976 36.3935 17.8176 41.0992 26.1056 41.0992C34.3936 41.0992 41.1136 36.4 41.1136 30.6093C41.1392 30.2306 41.1392 29.8518 41.1136 29.473C42.4064 28.8246 43.2192 27.4893 43.1936 26.0385ZM17.4464 28.6256C17.4464 27.2004 18.6048 26.0385 20.0256 26.0385C21.4464 26.0385 22.6048 27.2004 22.6048 28.6256C22.6048 30.0508 21.4464 31.2128 20.0256 31.2128C18.5984 31.1999 17.4464 30.0508 17.4464 28.6256ZM32.4032 35.7259C30.5728 37.1061 28.3328 37.8123 26.0416 37.716C23.7504 37.8123 21.5104 37.1061 19.68 35.7259C19.4368 35.4306 19.4816 34.9876 19.776 34.7437C20.032 34.5318 20.3968 34.5318 20.6592 34.7437C22.208 35.88 24.096 36.4577 26.016 36.3679C27.936 36.4706 29.8304 35.9185 31.3984 34.795C31.68 34.519 32.1408 34.5254 32.416 34.8079C32.6912 35.0903 32.6848 35.5525 32.4032 35.8286V35.7259ZM31.9424 31.3027C30.5216 31.3027 29.3632 30.1407 29.3632 28.7155C29.3632 27.2903 30.5216 26.1283 31.9424 26.1283C33.3632 26.1283 34.5216 27.2903 34.5216 28.7155C34.5792 30.1407 33.472 31.3412 32.0512 31.399H31.9232L31.9424 31.3027Z" fill="white"/>
<path d="M143.923 18.1614C145.86 18.1614 147.43 16.5863 147.43 14.6434C147.43 12.7004 145.86 11.1254 143.923 11.1254C141.986 11.1254 140.416 12.7004 140.416 14.6434C140.416 16.5863 141.986 18.1614 143.923 18.1614Z" fill="#44E4C9"/>
<path d="M94.2208 29.6143C95.5776 29.7106 96.7552 28.6834 96.8576 27.316C96.864 27.239 96.864 27.1491 96.864 27.0657C96.8448 26.5906 96.7872 26.1091 96.6912 25.6405C95.8592 21.1852 92.064 17.9047 87.552 17.7249C82.4128 17.7249 78.1184 22.4627 78.1184 28.279C78.1184 34.0953 82.3424 38.8395 87.5456 38.8395C90.304 38.9486 92.9792 37.8316 94.8352 35.7837C95.5968 34.9491 95.5328 33.6587 94.7008 32.8948C94.6368 32.837 94.5792 32.7857 94.5152 32.7407C93.6832 32.2207 92.6016 32.3299 91.8976 33.0103C90.7392 34.1659 89.184 34.8271 87.5456 34.8785C84.7168 34.6538 82.4512 32.4326 82.1696 29.5886H94.144L94.2208 29.6143ZM87.5264 21.6987C90.016 21.8656 92.1088 23.6503 92.6656 26.0963H82.4C82.9504 23.6439 85.0304 21.8592 87.5264 21.6987ZM78.3232 19.7728C78.3232 18.7842 77.5936 17.9432 76.6144 17.8212C73.9712 17.3782 71.2832 18.3605 69.5488 20.4148V20.158C69.5488 19.0602 68.6656 18.1743 67.5712 18.1743C66.4768 18.1743 65.5936 19.0602 65.5936 20.158V36.4C65.568 37.4657 66.3808 38.3708 67.4432 38.4607C68.5248 38.5378 69.472 37.716 69.5424 36.6311C69.5488 36.5541 69.5488 36.477 69.5424 36.4V28.0671C69.3696 24.7417 71.9104 21.9106 75.2256 21.7308C75.52 21.7116 75.8208 21.718 76.1152 21.7501H76.512C77.536 21.6602 78.3232 20.8064 78.3232 19.7728ZM145.894 21.9042C145.894 20.8064 145.011 19.9205 143.917 19.9205C142.822 19.9205 141.939 20.8064 141.939 21.9042V36.3936C141.939 37.4913 142.822 38.3773 143.917 38.3773C145.011 38.3773 145.894 37.4913 145.894 36.3936V21.9042ZM116.71 10.8943C116.71 9.80292 115.827 8.91699 114.739 8.91699C113.651 8.91699 112.768 9.80292 112.768 10.8943V19.7535C111.437 18.4054 109.606 17.6735 107.718 17.7249C102.579 17.7249 98.2848 22.4627 98.2848 28.279C98.2848 34.0953 102.515 38.8395 107.718 38.8395C109.638 38.8973 111.494 38.159 112.858 36.7916C113.165 37.838 114.259 38.435 115.302 38.1269C116.09 37.8958 116.653 37.2024 116.704 36.3743L116.71 10.8943ZM107.706 34.9299C104.678 34.9299 102.214 31.9768 102.214 28.3239C102.214 24.6711 104.659 21.718 107.706 21.718C110.752 21.718 113.197 24.6711 113.197 28.3239C113.197 31.9768 110.752 34.8978 107.718 34.8978L107.706 34.9299ZM137.331 10.8943C137.331 9.80292 136.448 8.91699 135.36 8.91699C134.272 8.91699 133.389 9.80292 133.389 10.8943V19.7535C132.058 18.4054 130.227 17.6735 128.339 17.7249C123.2 17.7249 118.906 22.4627 118.906 28.279C118.906 34.0953 123.136 38.8395 128.339 38.8395C130.259 38.8973 132.115 38.159 133.478 36.7916C133.786 37.838 134.88 38.435 135.923 38.1269C136.71 37.8958 137.274 37.2024 137.325 36.3743L137.331 10.8943ZM128.333 34.9299C125.306 34.9299 122.842 31.9768 122.842 28.3239C122.842 24.6711 125.286 21.718 128.333 21.718C131.379 21.718 133.824 24.6711 133.824 28.3239C133.824 31.9768 131.379 34.8978 128.346 34.8978L128.333 34.9299ZM156.141 36.3871V21.6987H157.85C158.797 21.7565 159.603 21.0311 159.661 20.0874C159.661 20.0553 159.667 20.0168 159.667 19.9782C159.75 19.0345 159.053 18.2 158.118 18.1165C158.067 18.1101 158.01 18.1101 157.958 18.1101H156.147V15.3817C156.16 14.3224 155.354 13.4301 154.298 13.3338C153.216 13.2567 152.275 14.0785 152.198 15.1634C152.192 15.2084 152.192 15.2597 152.192 15.3047V18.155H150.477C149.53 18.0972 148.723 18.8227 148.666 19.7664C148.666 19.7985 148.659 19.837 148.659 19.8755C148.576 20.8192 149.274 21.6538 150.208 21.7373C150.259 21.7437 150.317 21.7437 150.368 21.7437H152.077V36.3936C152.077 37.4849 152.96 38.3708 154.048 38.3708C155.136 38.4415 156.064 37.6069 156.134 36.5155C156.141 36.477 156.141 36.4321 156.141 36.3871Z" fill="#8C82FC"/>
</g>
<defs>
<clipPath id="clip0_109_621">
<rect width="160" height="52" fill="white"/>
</clipPath>
</defs>
</svg>
