<svg width="170" height="55" viewBox="0 0 170 55" fill="none" xmlns="http://www.w3.org/2000/svg">
<path d="M93.0432 16.7848C93.0432 18.13 91.9382 19.3306 90.4971 19.3306C89.392 19.3306 88.4316 19.619 87.6149 20.2435C86.7024 20.8204 85.9817 21.6366 85.4056 22.5491C84.2525 24.0865 83.6768 25.9115 83.4363 26.5836V35.7103C83.4363 37.1034 82.2357 38.2564 80.7946 38.2564C79.4015 38.2564 78.2488 37.1034 78.2488 35.7103V16.7848C78.2488 15.3917 79.4015 14.287 80.7946 14.287C82.2357 14.287 83.4363 15.3921 83.4363 16.7848V17.1212C83.7243 16.7848 84.1087 16.4009 84.4451 16.1604C86.0304 15.104 88.0955 14.239 90.4971 14.287C91.9382 14.287 93.0432 15.3921 93.0432 16.7848ZM91.6345 26.2483C91.6828 19.7157 96.7744 14.2398 103.355 14.2398C109.599 14.2398 114.546 18.8991 114.931 25.3834V25.6235C114.931 25.7197 114.931 25.9595 114.883 26.0558C114.739 27.2088 113.73 27.9774 112.385 27.9774H97.1104C97.3505 29.0825 97.8787 30.3311 98.7436 31.1477C99.7524 32.3007 101.674 33.1645 103.355 33.3087C105.084 33.4526 107.149 33.0207 108.35 32.1081C109.359 31.051 111.328 31.1956 111.953 31.9636C112.577 32.6367 113.057 34.0778 111.953 35.0858C109.599 37.2469 106.765 38.2561 103.354 38.2561C96.7744 38.2089 91.6828 32.7809 91.6345 26.2483ZM96.8703 23.8947H110.464C109.983 21.9734 107.534 19.1395 103.355 18.8032C99.2722 18.995 97.2546 21.9254 96.8703 23.8947ZM139.402 35.6635C139.402 37.0566 138.249 38.2576 136.808 38.2576C135.511 38.2576 134.502 37.345 134.262 36.192C132.437 37.4406 130.131 38.2576 127.729 38.2576C121.245 38.2576 116.057 32.7817 116.057 26.297C116.057 19.716 121.245 14.2402 127.729 14.2402C130.083 14.2402 132.388 15.0085 134.166 16.2574V7.2273C134.166 5.83417 135.319 4.63321 136.807 4.63321C138.248 4.63321 139.401 5.83417 139.401 7.2273V35.6635H139.402ZM127.73 19.4759C126 19.4759 124.415 20.1963 123.215 21.4452C122.014 22.6462 121.293 24.3749 121.293 26.2966C121.293 28.1217 122.014 29.8508 123.215 31.0518C124.415 32.3011 126 33.0214 127.73 33.0214C129.507 33.0214 131.044 32.3011 132.245 31.0518C133.445 29.8512 134.166 28.1217 134.166 26.2966C134.166 24.3749 133.446 22.6462 132.245 21.4452C131.044 20.1963 129.507 19.4759 127.73 19.4759ZM148.542 8.23572C148.542 9.6768 147.437 10.8774 145.948 10.8774C144.507 10.8774 143.354 9.6768 143.354 8.23572V7.22693C143.353 6.8859 143.419 6.54796 143.548 6.23261C143.678 5.91726 143.869 5.63074 144.11 5.38958C144.352 5.14842 144.638 4.95739 144.953 4.8275C145.269 4.69762 145.607 4.63146 145.948 4.63283C147.437 4.63283 148.542 5.78585 148.542 7.22693V8.23572ZM148.542 16.9298V35.6631C148.542 37.1042 147.437 38.2572 145.948 38.2572C145.607 38.2586 145.269 38.1924 144.953 38.0625C144.638 37.9326 144.352 37.7416 144.11 37.5004C143.869 37.2593 143.678 36.9727 143.548 36.6574C143.419 36.3421 143.353 36.0041 143.354 35.6631V16.9298C143.354 15.3928 144.507 14.2877 145.948 14.2877C147.437 14.2877 148.542 15.3928 148.542 16.9298ZM151.842 31.3852C152.707 30.2329 154.389 30.0887 155.445 31.0012C156.694 32.0583 158.856 33.1623 160.729 33.1147C162.026 33.1147 163.227 32.6828 163.995 32.2022C164.668 31.6257 164.859 31.1458 164.859 30.7611C164.859 30.521 164.811 30.4251 164.716 30.2805C164.667 30.1367 164.475 29.9445 164.091 29.7047C163.418 29.2241 161.977 28.6956 160.248 28.3596H160.2C158.711 28.0715 157.27 27.6872 156.021 27.1103C154.724 26.4862 153.571 25.6216 152.707 24.3248C152.178 23.4602 151.89 22.4034 151.89 21.2987C151.89 19.089 153.139 17.2156 154.724 16.0147C156.405 14.862 158.423 14.2376 160.633 14.2376C163.947 14.2376 166.3 15.8229 167.838 16.8792C168.991 17.6479 169.327 19.2332 168.606 20.4334C167.838 21.5864 166.253 21.9228 165.052 21.1062C163.515 20.0978 162.17 19.3287 160.633 19.3287C159.432 19.3287 158.375 19.7131 157.751 20.1933C157.126 20.626 156.982 21.0583 156.982 21.2984C156.982 21.4902 156.982 21.5385 157.078 21.6823C157.127 21.7782 157.27 21.9704 157.607 22.1626C158.232 22.5949 159.48 23.0271 161.113 23.3156L161.161 23.3639H161.21C162.795 23.6516 164.284 24.0843 165.677 24.7567C166.974 25.3332 168.271 26.2457 169.087 27.5905C169.664 28.551 170 29.656 170 30.7607C170 33.1143 168.703 35.084 166.974 36.3325C165.244 37.5331 163.083 38.2542 160.729 38.2542C156.983 38.2063 154.101 36.4771 152.179 34.9401C151.122 34.0756 150.978 32.4419 151.842 31.3852Z" fill="#8C82FC"/>
<path d="M60.7537 41.7893C57.3794 43.5482 39.8991 50.7354 36.1776 52.6753C32.4561 54.6159 30.3888 54.597 27.449 53.1916C24.5092 51.7862 5.90711 44.2722 2.55623 42.6706C0.881351 41.8699 0.000793457 41.1946 0.000793457 40.5564V34.165C0.000793457 34.165 24.2182 28.8928 28.1281 27.4904C32.0376 26.0876 33.3939 26.037 36.721 27.2558C40.0485 28.4746 59.9426 32.0641 63.231 33.2684L63.2296 39.5691C63.2299 40.201 62.4713 40.8942 60.7537 41.7893Z" fill="#8C82FC"/>
<path d="M60.7537 35.3959C57.3794 37.1541 39.8991 44.342 36.1776 46.2819C32.4561 48.2226 30.3888 48.2036 27.449 46.7982C24.5088 45.3936 5.90711 37.8782 2.55623 36.2772C-0.794642 34.6756 -0.864896 33.5731 2.42688 32.2844C5.71828 30.995 24.2182 23.7368 28.1284 22.334C32.038 20.932 33.3943 20.8807 36.7214 22.0999C40.0489 23.3187 57.4247 30.2349 60.7128 31.4392C64.0016 32.6446 64.1279 33.6371 60.7537 35.3959Z" fill="#736ADC"/>
<path d="M60.7537 31.3665C57.3794 33.1254 39.8991 40.3126 36.1776 42.2533C32.4561 44.1932 30.3888 44.1742 27.449 42.7688C24.5088 41.3642 5.90711 33.8495 2.55623 32.2479C0.881351 31.4472 0.000793457 30.7726 0.000793457 30.1344V23.7422C0.000793457 23.7422 24.2182 18.4704 28.1281 17.0676C32.0376 15.6652 33.3939 15.6143 36.721 16.8331C40.0485 18.0519 59.9426 21.6407 63.231 22.8453L63.2296 29.1468C63.2299 29.7783 62.4713 30.4715 60.7537 31.3665Z" fill="#8C82FC"/>
<path d="M60.7537 24.9733C57.3794 26.7322 39.8991 33.9193 36.1776 35.86C32.4561 37.7999 30.3888 37.7809 27.449 36.3755C24.5088 34.9709 5.90711 27.4559 2.55623 25.8546C-0.794642 24.2533 -0.864896 23.1508 2.42688 21.8614C5.71828 20.5727 24.2182 13.3142 28.1284 11.9117C32.038 10.5093 33.3943 10.4584 36.7214 11.6772C40.0489 12.896 57.4247 19.8119 60.7128 21.0165C64.0016 22.2216 64.1279 23.2144 60.7537 24.9733Z" fill="#736ADC"/>
<path d="M60.7537 20.5577C57.3794 22.3166 39.8991 29.5042 36.1776 31.4448C32.4561 33.3847 30.3888 33.3657 27.449 31.9603C24.5088 30.5557 5.90711 23.0407 2.55623 21.4394C0.881351 20.6387 0.000793457 19.9637 0.000793457 19.3259V12.9338C0.000793457 12.9338 24.2182 7.66195 28.1281 6.25953C32.0376 4.85673 33.3939 4.80618 36.721 6.02499C40.0485 7.24379 59.9426 10.8326 63.231 12.0372L63.2296 18.3383C63.2299 18.9694 62.4713 19.6627 60.7537 20.5577Z" fill="#8C82FC"/>
<path d="M60.7537 14.1644C57.3794 15.9233 39.8991 23.1108 36.1776 25.0511C32.4561 26.991 30.3888 26.9721 27.449 25.567C24.5092 24.162 5.90711 16.6473 2.55623 15.0461C-0.794642 13.4448 -0.864896 12.3419 2.42688 11.0529C5.71828 9.76383 24.2182 2.50602 28.1284 1.10322C32.038 -0.299573 33.3943 -0.35012 36.7214 0.869056C40.0489 2.08786 57.4247 9.00371 60.7128 10.2084C64.0016 11.4127 64.1279 12.4059 60.7537 14.1644Z" fill="#736ADC"/>
<path d="M39.9012 8.00905L34.4223 8.57775L33.1957 11.529L31.2146 8.23579L24.8883 7.66709L29.6089 5.96472L28.1927 3.35168L32.6122 5.08008L36.7789 3.71595L35.6527 6.41819L39.9012 8.00905ZM32.8686 22.3268L22.6432 18.0858L37.2956 15.837L32.8686 22.3268Z" fill="white"/>
<path d="M18.6921 15.7205C23.0172 15.7205 26.5234 14.3614 26.5234 12.6848C26.5234 11.0083 23.0172 9.64917 18.6921 9.64917C14.367 9.64917 10.8608 11.0083 10.8608 12.6848C10.8608 14.3614 14.367 15.7205 18.6921 15.7205Z" fill="white"/>
<path d="M46.3762 8.81567L55.0479 12.2427L46.3837 15.6661L46.3762 8.81567Z" fill="#44E4C9"/>
<path d="M36.7827 12.6107L46.3762 8.81567L46.3837 15.6661L45.4433 16.034L36.7827 12.6107Z" fill="#44E4C9"/>
</svg>
