<svg width="30" height="18" viewBox="0 0 30 18" fill="none" xmlns="http://www.w3.org/2000/svg">
<path fill-rule="evenodd" clip-rule="evenodd" d="M30 16.7143C30 16.3733 29.8683 16.0463 29.6339 15.8051C29.3995 15.564 29.0815 15.4286 28.75 15.4286H21.25C20.9185 15.4286 20.6005 15.564 20.3661 15.8051C20.1317 16.0463 20 16.3733 20 16.7143C20 17.0553 20.1317 17.3823 20.3661 17.6234C20.6005 17.8645 20.9185 18 21.25 18H28.75C29.0815 18 29.3995 17.8645 29.6339 17.6234C29.8683 17.3823 30 17.0553 30 16.7143ZM30 9C30 8.65901 29.8683 8.33198 29.6339 8.09086C29.3995 7.84974 29.0815 7.71429 28.75 7.71429H11.25C10.9185 7.71429 10.6005 7.84974 10.3661 8.09086C10.1317 8.33198 10 8.65901 10 9C10 9.34099 10.1317 9.66802 10.3661 9.90914C10.6005 10.1503 10.9185 10.2857 11.25 10.2857H28.75C29.0815 10.2857 29.3995 10.1503 29.6339 9.90914C29.8683 9.66802 30 9.34099 30 9ZM30 1.28571C30 0.944722 29.8683 0.617695 29.6339 0.376577C29.3995 0.135459 29.0815 0 28.75 0H1.25C0.918479 0 0.600537 0.135459 0.366117 0.376577C0.131696 0.617695 0 0.944722 0 1.28571C0 1.62671 0.131696 1.95373 0.366117 2.19485C0.600537 2.43597 0.918479 2.57143 1.25 2.57143H28.75C29.0815 2.57143 29.3995 2.43597 29.6339 2.19485C29.8683 1.95373 30 1.62671 30 1.28571Z" fill="#8C82FC"/>
</svg>
