<svg width="50" height="50" viewBox="0 0 50 50" fill="none" xmlns="http://www.w3.org/2000/svg">
<circle cx="25" cy="25" r="25" fill="#DDFFF9"/>
<path fill-rule="evenodd" clip-rule="evenodd" d="M33.399 16.6022C33.7933 16.2178 34.3257 16.0015 34.8809 16C35.4361 15.9985 35.9697 16.2119 36.3662 16.5941C36.7627 16.9763 36.9902 17.4966 36.9997 18.0425C37.0092 18.5883 36.7997 19.1159 36.4167 19.5112L25.1685 33.3359C24.9752 33.5406 24.7419 33.7049 24.4825 33.819C24.2231 33.933 23.943 33.9945 23.6589 33.9996C23.3749 34.0048 23.0926 33.9536 22.8291 33.8491C22.5656 33.7446 22.3263 33.5889 22.1254 33.3913L14.6726 26.0606C14.465 25.8704 14.2984 25.641 14.1829 25.3861C14.0674 25.1312 14.0053 24.8561 14.0003 24.5771C13.9953 24.2981 14.0475 24.0209 14.1538 23.7622C14.2601 23.5035 14.4183 23.2685 14.619 23.0711C14.8196 22.8738 15.0587 22.7183 15.3218 22.6138C15.5849 22.5093 15.8668 22.458 16.1506 22.4629C16.4343 22.4678 16.7141 22.5289 16.9734 22.6424C17.2326 22.756 17.4659 22.9197 17.6594 23.1239L23.5596 28.9225L33.3455 16.6631C33.3629 16.6417 33.3817 16.6213 33.4018 16.6022H33.399Z" fill="#00ADB5"/>
</svg>
