<svg width="135" height="50" viewBox="0 0 135 50" fill="none" xmlns="http://www.w3.org/2000/svg">
<path d="M64.941 38.51C63.1503 38.51 61.5353 38.1983 60.096 37.575C58.668 36.9517 57.4893 36.062 56.56 34.906C55.642 33.7387 55.0583 32.356 54.809 30.758L59.059 30.112C59.4217 31.5627 60.164 32.6847 61.286 33.478C62.4193 34.2713 63.7227 34.668 65.196 34.668C66.0687 34.668 66.8903 34.532 67.661 34.26C68.4317 33.988 69.055 33.5913 69.531 33.07C70.0183 32.5487 70.262 31.9083 70.262 31.149C70.262 30.809 70.2053 30.4973 70.092 30.214C69.9787 29.9193 69.8087 29.6587 69.582 29.432C69.3667 29.2053 69.0833 29.0013 68.732 28.82C68.392 28.6273 67.9953 28.463 67.542 28.327L61.218 26.457C60.674 26.2983 60.0847 26.0887 59.45 25.828C58.8267 25.556 58.2317 25.1877 57.665 24.723C57.1097 24.247 56.6507 23.6463 56.288 22.921C55.9367 22.1843 55.761 21.2777 55.761 20.201C55.761 18.6257 56.1577 17.3053 56.951 16.24C57.7557 15.1633 58.8323 14.3587 60.181 13.826C61.541 13.2933 63.0483 13.0327 64.703 13.044C66.3803 13.0553 67.8763 13.3443 69.191 13.911C70.5057 14.4663 71.605 15.2767 72.489 16.342C73.373 17.4073 73.9963 18.6937 74.359 20.201L69.956 20.966C69.7747 20.1047 69.4233 19.3737 68.902 18.773C68.392 18.161 67.763 17.6963 67.015 17.379C66.2783 17.0617 65.4907 16.8917 64.652 16.869C63.836 16.8577 63.0767 16.9823 62.374 17.243C61.6827 17.4923 61.1217 17.855 60.691 18.331C60.2717 18.807 60.062 19.3623 60.062 19.997C60.062 20.5977 60.2433 21.0907 60.606 21.476C60.9687 21.85 61.4163 22.1503 61.949 22.377C62.493 22.5923 63.0427 22.7737 63.598 22.921L67.984 24.145C68.5847 24.3037 69.259 24.519 70.007 24.791C70.755 25.063 71.4747 25.4427 72.166 25.93C72.8573 26.4173 73.424 27.0577 73.866 27.851C74.3193 28.6443 74.546 29.653 74.546 30.877C74.546 32.1463 74.2797 33.2627 73.747 34.226C73.2257 35.178 72.5173 35.9713 71.622 36.606C70.7267 37.2407 69.701 37.7167 68.545 38.034C67.4003 38.3513 66.199 38.51 64.941 38.51ZM85.1107 38.527C83.7507 38.527 82.6287 38.3003 81.7447 37.847C80.8607 37.3937 80.158 36.8157 79.6367 36.113C79.1154 35.4103 78.73 34.6623 78.4807 33.869C78.2314 33.0757 78.067 32.3277 77.9877 31.625C77.9197 30.911 77.8857 30.333 77.8857 29.891V19.64H82.0337V28.48C82.0337 29.0467 82.0734 29.687 82.1527 30.401C82.232 31.1037 82.4134 31.7837 82.6967 32.441C82.9914 33.087 83.422 33.6197 83.9887 34.039C84.5667 34.4583 85.343 34.668 86.3177 34.668C86.839 34.668 87.3547 34.583 87.8647 34.413C88.3747 34.243 88.8337 33.954 89.2417 33.546C89.661 33.1267 89.9954 32.5543 90.2447 31.829C90.494 31.1037 90.6187 30.1857 90.6187 29.075L93.0497 30.112C93.0497 31.676 92.7437 33.0927 92.1317 34.362C91.531 35.6313 90.6414 36.6457 89.4627 37.405C88.284 38.153 86.8334 38.527 85.1107 38.527ZM91.1117 38V32.305H90.6187V19.64H94.7327V38H91.1117ZM97.4689 38L104.184 28.718L97.6049 19.64H102.433L106.564 25.505L110.627 19.64H115.455L108.876 28.718L115.625 38H110.797L106.564 31.931L102.297 38H97.4689ZM116.635 38V37.439L126.359 23.227H117.621V19.64H132.734V20.218L123.044 34.413H132.326V38H116.635Z" fill="black"/>
<path d="M35 25L17.5 50L0 25L17.5 0" fill="#E1DFFC"/>
<path d="M41 25L23.5 50L6 25L23.5 0" fill="#8C82FC"/>
</svg>
