<svg width="30" height="30" viewBox="0 0 30 30" fill="none" xmlns="http://www.w3.org/2000/svg">
<path fill-rule="evenodd" clip-rule="evenodd" d="M0.09375 6.66563C0.282784 5.83733 0.747479 5.09777 1.41173 4.56808C2.07598 4.03838 2.90041 3.74994 3.75 3.75H26.25C27.0996 3.74994 27.924 4.03838 28.5883 4.56808C29.2525 5.09777 29.7172 5.83733 29.9062 6.66563L15 15.7762L0.09375 6.66563ZM0 8.80688V22.1269L10.8806 15.4556L0 8.80688ZM12.6769 16.5562L0.358125 24.1069C0.662487 24.7487 1.14286 25.2908 1.74334 25.6702C2.34382 26.0496 3.0397 26.2507 3.75 26.25H26.25C26.9602 26.2502 27.6558 26.0486 28.2559 25.6689C28.8561 25.2892 29.336 24.7468 29.64 24.105L17.3212 16.5544L15 17.9738L12.6769 16.5544V16.5562ZM19.1194 15.4575L30 22.1269V8.80688L19.1194 15.4556V15.4575Z" fill="#8C82FC"/>
</svg>
