<svg width="30" height="30" viewBox="0 0 30 30" fill="none" xmlns="http://www.w3.org/2000/svg">
<path fill-rule="evenodd" clip-rule="evenodd" d="M4.25066 1.83754C4.55816 1.53001 4.92754 1.29137 5.33429 1.13747C5.74105 0.983564 6.17588 0.91791 6.60994 0.944861C7.044 0.971813 7.46736 1.09075 7.85195 1.29379C8.23654 1.49683 8.57357 1.77933 8.84066 2.12254L11.9925 6.17629C12.5719 6.91879 12.7763 7.88817 12.5475 8.80129L11.5857 12.6507C11.5356 12.8504 11.5382 13.0597 11.5931 13.2582C11.6479 13.4566 11.7533 13.6375 11.8988 13.7832L16.2188 18.1013C16.3645 18.2468 16.5453 18.3521 16.7438 18.407C16.9423 18.4619 17.1515 18.4644 17.3513 18.4144L21.1988 17.4525C21.6501 17.3398 22.1211 17.3312 22.5762 17.4274C23.0313 17.5235 23.4585 17.7219 23.8257 18.0075L27.8794 21.1594C29.3363 22.2919 29.4713 24.4463 28.1663 25.7494L26.3475 27.5682C25.0482 28.8675 23.1038 29.4394 21.2907 28.8019C16.6527 27.1694 12.4417 24.5138 8.97004 21.0319C5.48749 17.5604 2.83118 13.3495 1.19816 8.71129C0.560659 6.89817 1.13253 4.95379 2.43191 3.65254L4.25066 1.83567V1.83754Z" fill="#8C82FC"/>
</svg>
